<?xml version="1.0" encoding="UTF-8"?>
<!DOCTYPE svg PUBLIC "-//W3C//DTD SVG 1.1//EN" "http://www.w3.org/Graphics/SVG/1.1/DTD/svg11.dtd">
<svg xmlns="http://www.w3.org/2000/svg" version="1.1" width="308px" height="364px" style="shape-rendering:geometricPrecision; text-rendering:geometricPrecision; image-rendering:optimizeQuality; fill-rule:evenodd; clip-rule:evenodd" xmlns:xlink="http://www.w3.org/1999/xlink">
<g><path style="opacity:0.997" fill="#215679" d="M 57.5,-0.5 C 63.1667,-0.5 68.8333,-0.5 74.5,-0.5C 93.4633,2.39038 112.463,5.89038 131.5,10C 168.332,14.1471 204.332,10.6471 239.5,-0.5C 246.5,-0.5 253.5,-0.5 260.5,-0.5C 278.14,3.76296 290.307,14.4296 297,31.5C 302.877,49.5116 306.377,67.8449 307.5,86.5C 307.5,108.167 307.5,129.833 307.5,151.5C 306.246,179.901 303.08,208.235 298,236.5C 291.888,268.383 278.555,296.716 258,321.5C 234.809,345.512 206.642,359.512 173.5,363.5C 162.167,363.5 150.833,363.5 139.5,363.5C 70.8382,353.01 28.0049,314.01 11,246.5C 3.96469,211.366 0.131352,176.032 -0.5,140.5C -0.5,116.833 -0.5,93.1667 -0.5,69.5C 0.9991,50.8384 7.16577,33.8384 18,18.5C 28.8431,7.16054 42.0097,0.827208 57.5,-0.5 Z"/></g>
</svg>
