<?xml version="1.0" encoding="UTF-8"?>
<svg version="1.1" xmlns="http://www.w3.org/2000/svg" width="308" height="364">
<path d="M0 0 C34.12553393 7.01935128 67.66904269 6.96932438 101.64453125 -1.3125 C125.95435085 -7.21751579 125.95435085 -7.21751579 137.1875 -7.1875 C137.98518799 -7.18580811 138.78287598 -7.18411621 139.60473633 -7.18237305 C151.64414987 -6.75748277 162.65096522 -1.74187993 171.46484375 6.37109375 C191.96395024 28.54701877 193.47508326 65.68509706 193.578125 94.24609375 C193.58509399 95.55040344 193.59206299 96.85471313 193.59924316 98.19854736 C193.61864453 102.42403543 193.62342573 106.64947229 193.625 110.875 C193.62588371 111.9568627 193.62588371 111.9568627 193.62678528 113.06058121 C193.7060906 250.67323406 193.7060906 250.67323406 154.375 302.4375 C153.73046875 303.28957031 153.0859375 304.14164062 152.421875 305.01953125 C150.45608746 307.53868024 148.43595968 309.99575348 146.375 312.4375 C145.68792969 313.25992187 145.00085938 314.08234375 144.29296875 314.9296875 C129.79319225 331.70240194 111.09688612 343.01418281 90.375 350.4375 C89.27929688 350.83582031 88.18359375 351.23414063 87.0546875 351.64453125 C61.09602695 360.32994775 29.75888469 360.50920399 3.375 353.4375 C2.52260742 353.2120752 1.67021484 352.98665039 0.79199219 352.75439453 C-19.00817758 347.30287115 -38.1045849 337.97611174 -53.625 324.4375 C-54.53378906 323.65375 -55.44257812 322.87 -56.37890625 322.0625 C-58.83597233 319.89471592 -61.23921098 317.6831982 -63.625 315.4375 C-64.22570312 314.88964844 -64.82640625 314.34179688 -65.4453125 313.77734375 C-109.91815714 271.68327917 -112.81150168 198.54081987 -114.46386719 141.46972656 C-114.81180196 127.58707872 -114.88707057 113.70069199 -114.92871475 99.81429291 C-114.93740601 97.46292876 -114.9512571 95.11164559 -114.96640015 92.76031494 C-115.20281123 52.66494914 -115.20281123 52.66494914 -108.875 34.9375 C-108.61823486 34.19886719 -108.36146973 33.46023437 -108.09692383 32.69921875 C-102.95778873 18.57857566 -93.32934485 6.0007254 -79.625 -0.5625 C-54.09008917 -11.90300451 -26.17318403 -5.38516679 0 0 Z " fill="#56CB98" transform="translate(114.625,6.5625)"/>
</svg>
